<svg xmlns="http://www.w3.org/2000/svg" xmlns:xlink="http://www.w3.org/1999/xlink" version="1.1"
     preserveAspectRatio="none" x="0px" y="0px" viewBox="0 0 100 100">
  <defs>
    <g id="a">
      <path fill="#000000" stroke="none"
            d=" M 81.75 21.75 Q 82.503515625 21.0390625 82.5 20 82.503515625 18.9607421875 81.75 18.2 81.0390625 17.4962890625 80 17.5 78.9607421875 17.4962890625 78.2 18.2 L 50 46.45 21.75 18.2 Q 21.0390625 17.4962890625 20 17.5 18.9607421875 17.4962890625 18.2 18.2 17.4962890625 18.9607421875 17.5 20 17.4962890625 21.0390625 18.2 21.75 L 46.45 50 18.2 78.2 Q 17.4962890625 78.9607421875 17.5 80 17.4962890625 81.0390625 18.2 81.75 18.9607421875 82.503515625 20 82.5 21.0390625 82.503515625 21.75 81.75 L 50 53.55 78.2 81.75 Q 78.9607421875 82.503515625 80 82.5 81.0390625 82.503515625 81.75 81.75 82.503515625 81.0390625 82.5 80 82.503515625 78.9607421875 81.75 78.2 L 53.55 50 81.75 21.75 Z"/>
    </g>
  </defs>
  <g transform="matrix( 1, 0, 0, 1, 0,0) ">
    <use xlink:href="#a"/>
  </g>
</svg>
